<?xml version="1.0" encoding="utf-8"?>
<svg xmlns="http://www.w3.org/2000/svg" viewBox="0 0 500 500" xmlns:bx="https://boxy-svg.com" width="500px" height="500px"><defs><bx:export><bx:file format="svg"/></bx:export></defs><g id="Shadow"><ellipse id="_Path_" cx="250" cy="416.24" rx="193.89" ry="11.32" style="fill: rgb(39, 39, 42);"/></g><g id="Browser"><rect x="348.16" y="174.61" width="23.81" height="1.07" transform="translate(167.13 526) rotate(-87.13)" style="fill: rgb(59, 130, 246);"/><rect x="354.71" y="195.71" width="8.58" height="1.07" transform="translate(145.04 544.99) rotate(-87.13)" style="fill: rgb(59, 130, 246);"/><path d="m334.22,355.35h-102.23c-7.44,0-13.22-6.09-12.85-13.53l11.4-226c.38-7.44,6.77-13.53,14.21-13.53h102.23c7.44,0,13.22,6.09,12.85,13.53l-11.4,226c-.38,7.44-6.77,13.53-14.21,13.53Z" style="fill: rgb(39, 39, 42);"/><path d="m306.71,333.86h-30.83c-4.56,0-8.78-1.79-11.87-5.04-3.1-3.26-4.67-7.57-4.44-12.14l5.47-108.5c.48-9.44,8.54-17.12,17.99-17.12h30.83c4.56,0,8.78,1.79,11.87,5.04,3.1,3.26,4.67,7.57,4.44,12.14l-5.47,108.5c-.48,9.44-8.54,17.12-17.99,17.12Zm-23.69-141.67c-8.85,0-16.41,7.2-16.86,16.05l-5.47,108.5c-.21,4.26,1.25,8.27,4.13,11.3,2.88,3.02,6.8,4.69,11.05,4.69h30.83c8.85,0,16.41-7.2,16.86-16.05l5.47-108.5c.21-4.26-1.25-8.27-4.13-11.3-2.88-3.02-6.8-4.69-11.05-4.69h-30.83Z" opacity=".2" style="fill: rgb(59, 130, 246);"/><path d="m280.83,221.03h-26.06c-7.44,0-13.22-6.09-12.85-13.53l1.31-26.06c.38-7.44,6.77-13.53,14.21-13.53h26.06c7.44,0,13.22,6.09,12.85,13.53l-1.31,26.06c-.38,7.44-6.77,13.53-14.21,13.53Z" opacity=".1"/><path d="m273.25,213.04h-26.06c-7.44,0-13.22-6.09-12.85-13.53l1.31-26.06c.38-7.44,6.77-13.53,14.21-13.53h26.06c7.44,0,13.22,6.09,12.85,13.53l-1.31,26.06c-.38,7.44-6.77,13.53-14.21,13.53Z" style="fill: rgb(59, 130, 246);"/><path d="m317.43,321.84h-18.57c-5.3,0-9.42-4.34-9.15-9.64l.94-18.57c.27-5.3,4.82-9.64,10.13-9.64h18.57c5.3,0,9.42,4.34,9.15,9.64l-.94,18.57c-.27,5.3-4.82,9.64-10.13,9.64Z" opacity=".1"/><path d="m312.03,316.15h-18.57c-5.3,0-9.42-4.34-9.15-9.64l.94-18.57c.27-5.3,4.82-9.64,10.13-9.64h18.57c5.3,0,9.42,4.34,9.15,9.64l-.94,18.57c-.27,5.3-4.82,9.64-10.13,9.64Z" style="fill: rgb(59, 130, 246);"/><path d="m250.15,259.92h-13.4c-3.83,0-6.8-3.13-6.61-6.96l.68-13.4c.19-3.83,3.48-6.96,7.31-6.96h13.4c3.83,0,6.8,3.13,6.61,6.96l-.68,13.4c-.19,3.83-3.48,6.96-7.31,6.96Z" style="fill: rgb(59, 130, 246);"/><path d="m336.08,259.92h-13.4c-3.83,0-6.8-3.13-6.61-6.96l.68-13.4c.19-3.83,3.48-6.96,7.31-6.96h13.4c3.83,0,6.8,3.13,6.61,6.96l-.68,13.4c-.19,3.83-3.48,6.96-7.31,6.96Z" style="fill: rgb(59, 130, 246);"/><path d="m293.12,259.92h-13.4c-3.83,0-6.8-3.13-6.61-6.96l.68-13.4c.19-3.83,3.48-6.96,7.31-6.96h13.4c3.83,0,6.8,3.13,6.61,6.96l-.68,13.4c-.19,3.83-3.48,6.96-7.31,6.96Z" style="fill: rgb(59, 130, 246);"/><path d="m342.96,141.69h-98.15c-4.15,0-7.38-3.4-7.17-7.55v-.18c.22-4.15,3.79-7.55,7.94-7.55h98.15c4.15,0,7.38,3.4,7.17,7.55v.18c-.22,4.15-3.79,7.55-7.94,7.55Z" style="fill: rgb(59, 130, 246);"/><polygon points="338.55 129.75 339.8 132.58 342.9 133.03 340.53 135.23 340.91 138.33 338.19 136.87 335.33 138.33 336.02 135.23 333.88 133.03 337.02 132.58 338.55 129.75" fill="#407bff"/><path d="m250.49,134.04c-.08,1.56-1.4,2.82-2.96,2.82s-2.76-1.26-2.68-2.82c.08-1.56,1.4-2.82,2.96-2.82s2.76,1.26,2.68,2.82Z" fill="#407bff" opacity=".1"/><path d="m257.72,134.04c-.08,1.56-1.4,2.82-2.96,2.82s-2.76-1.26-2.68-2.82c.08-1.56,1.4-2.82,2.96-2.82s2.76,1.26,2.68,2.82Z" fill="#407bff" opacity=".1"/><path d="m264.96,134.04c-.08,1.56-1.4,2.82-2.96,2.82s-2.76-1.26-2.68-2.82c.08-1.56,1.4-2.82,2.96-2.82s2.76,1.26,2.68,2.82Z" fill="#407bff" opacity=".1"/><polygon points="238.73 114.45 244.4 118.89 244.84 110.02 238.73 114.45" opacity=".2" style="fill: rgb(59, 130, 246);"/><polygon points="351.01 114.45 344.9 118.89 345.34 110.02 351.01 114.45" opacity=".2" style="fill: rgb(59, 130, 246);"/><path d="m339.35,175.62h-35.7c-.78,0-1.5-.31-2.02-.86-.53-.55-.8-1.29-.76-2.07.08-1.6,1.45-2.9,3.04-2.9h35.7c.78,0,1.5.3,2.02.86.53.56.8,1.29.76,2.07-.08,1.6-1.45,2.9-3.04,2.9Zm-35.44-5.26c-1.3,0-2.42,1.06-2.48,2.36-.03.62.18,1.21.6,1.65.42.44.99.68,1.61.68h35.7c1.3,0,2.42-1.06,2.48-2.36.03-.62-.18-1.21-.6-1.65-.42-.44-.99-.68-1.61-.68h-35.7Z" opacity=".2" style="fill: rgb(59, 130, 246);"/><path d="m338.95,183.61h-35.7c-.78,0-1.5-.31-2.02-.86-.53-.56-.8-1.29-.76-2.07.08-1.6,1.45-2.9,3.05-2.9h35.7c.78,0,1.5.31,2.02.86.53.56.8,1.29.76,2.07-.08,1.6-1.45,2.9-3.05,2.9Zm-35.44-5.26c-1.3,0-2.42,1.06-2.48,2.36-.03.62.18,1.21.6,1.65.42.44.99.68,1.61.68h35.7c1.3,0,2.42-1.06,2.48-2.36.03-.62-.18-1.21-.6-1.65-.42-.44-.99-.68-1.61-.68h-35.7Z" opacity=".2" style="fill: rgb(59, 130, 246);"/><path d="m241.96,319.55c-.78,0-1.5-.31-2.02-.86-.53-.56-.8-1.29-.76-2.07l1.8-35.7c.08-1.6,1.45-2.9,3.04-2.9.78,0,1.5.31,2.02.86.53.55.8,1.29.76,2.07l-1.8,35.7c-.08,1.6-1.45,2.9-3.05,2.9Zm2.07-40.97c-1.3,0-2.42,1.06-2.48,2.36l-1.8,35.7h0c-.03.62.18,1.21.6,1.65.42.44.99.68,1.61.68,1.3,0,2.42-1.06,2.48-2.36l1.8-35.7c.03-.62-.18-1.21-.6-1.65-.42-.44-.99-.68-1.61-.68Zm-4.56,38.05h0,0Z" opacity=".2" style="fill: rgb(59, 130, 246);"/><path d="m313.76,120.71h-38.45c-3.6,0-6.36-2.73-6.17-6.11h0c.19-3.37,3.26-6.11,6.86-6.11h38.45c3.6,0,6.36,2.73,6.17,6.11h0c-.19,3.37-3.26,6.11-6.86,6.11Z" style="fill: rgb(59, 130, 246);"/></g><g id="Character"><g><g><path d="m148.38,207.94l4.77,4.16-8.81,3.98s-.43-2.07-.67-5.3c-.1-1.35.89-2.53,2.24-2.64l2.47-.21Z" fill="#ffc3bd"/><polygon points="154.92 220.56 147.11 220.56 144.34 216.09 153.15 212.1 154.92 220.56" fill="#ffc3bd"/></g><g><path d="m199.56,145.9c3.34,4.22,6.79,8.55,10.24,12.75,3.45,4.22,6.98,8.36,10.6,12.24l1.37,1.43.52.53c.11.13.3.27.46.41.7.57,1.65,1.19,2.68,1.75,2.09,1.12,4.49,2.14,6.96,3.04,4.94,1.82,10.25,3.4,15.46,4.87l-.77,5.88c-5.81-.12-11.45-.7-17.22-1.91-2.88-.63-5.77-1.39-8.74-2.59-1.49-.61-3.01-1.31-4.57-2.35-.4-.28-.78-.52-1.19-.86l-.6-.49-.43-.38-1.64-1.47c-4.29-3.95-8.2-8.11-11.96-12.37-3.76-4.28-7.29-8.63-10.72-13.24l9.55-7.21Z" fill="#ffc3bd"/><polygon points="257.21 181.93 259.35 190.19 250.97 189.72 252.87 180.5 257.21 181.93" fill="#ffc3bd"/><path d="m245.55,182.91l7.32-2.41-1.9,9.22s-6.47,1.89-8.79-2.84l3.37-3.97Z" fill="#ffc3bd"/><path d="m157.75,149.43c-1.51,5.22-3.11,10.46-4.73,15.65l-2.4,7.77-1.15,3.85-.55,1.9-.46,1.73c-.18.68-.28,1.85-.32,3.01-.04,1.19-.02,2.45.04,3.73.12,2.57.33,5.22.6,7.89.55,5.32,1.2,10.76,1.86,16.14l-5.74,1.46c-1.97-5.28-3.63-10.58-4.97-16.07-.65-2.75-1.26-5.53-1.7-8.41-.21-1.45-.4-2.93-.5-4.48-.1-1.57-.15-3.16.13-5.19.08-.57.14-.82.21-1.21l.2-1.08.42-2.1c.29-1.39.61-2.76.93-4.11.64-2.72,1.31-5.41,2.03-8.09,1.42-5.36,2.97-10.63,4.68-15.91l11.43,3.54Z" fill="#ffc3bd"/><path d="m186.91,114.41c-.13.62.09,1.21.49,1.31s.84-.32.97-.94c.13-.62-.09-1.21-.49-1.31-.4-.1-.84.32-.97.94Z" fill="#263238"/><path d="m186.94,115.61s.64,3.95,1.82,6.08c-1.31.75-3.07-.19-3.07-.19l1.25-5.89Z" fill="#ed847e"/><path d="m188.56,110.63c.12,0,.23-.06.31-.16.12-.17.08-.4-.09-.52-.06-.04-1.5-1.03-3.39-.25-.19.08-.28.3-.2.49.08.19.3.28.49.2,1.51-.62,2.66.17,2.67.18.07.05.14.07.21.07Z" fill="#263238"/><path d="m165.48,116.39c-.7,7.26.33,14.29-1.29,20.6,0,0,1.8,5.86,12.53,5.86,11.8,0,5.41-5.86,5.41-5.86-6.5-1.54-6.52-6.32-5.57-10.8l-11.09-9.8Z" fill="#ffc3bd"/><path d="m161.9,139c-.92-1.85-1.53-4.48.37-5.14,2.09-.73,13.26-.97,17.31.4,4.05,1.37,3.06,5.13,3.06,5.13l-20.75-.39Z" fill="#407bff"/><path d="m140.46,402.69c-.78-.18-1.58-.54-2.12-.82-.07-.04-.12-.11-.11-.2s.06-.15.14-.18c.35-.12,3.45-1.14,4.27-.45.13.11.27.31.21.64-.08.45-.3.77-.66.95-.46.23-1.08.2-1.72.05Zm-1.48-.96c1.36.62,2.47.83,3.02.55.24-.12.39-.34.44-.66.03-.16-.02-.22-.07-.26-.42-.36-2.14,0-3.39.37Z" fill="#407bff"/><path d="m138.38,401.89s-.07-.03-.1-.06c-.05-.05-.07-.13-.05-.2.03-.1.81-2.47,1.97-3.04.3-.15.61-.17.91-.06h0c.46.17.52.49.51.67-.04.98-2.16,2.42-3.14,2.69-.03,0-.07,0-.1,0Zm2.5-3c-.16-.04-.33-.02-.5.07-.75.36-1.35,1.71-1.61,2.39,1.02-.45,2.42-1.59,2.44-2.17,0-.05,0-.18-.24-.27h0s-.06-.02-.09-.03Z" fill="#407bff"/><path d="m195.08,408.8c-.8,0-1.66-.17-2.26-.31-.08-.02-.14-.08-.15-.17s.02-.16.09-.21c.31-.2,3.1-1.91,4.05-1.42.15.08.33.24.35.58.03.46-.11.82-.42,1.08-.39.33-1,.44-1.66.44Zm-1.66-.6c1.46.29,2.59.24,3.06-.16.21-.17.3-.42.28-.74-.01-.16-.07-.21-.13-.24-.5-.25-2.08.48-3.21,1.14Z" fill="#407bff"/><path d="m192.87,408.49s-.08-.01-.11-.03c-.06-.04-.1-.11-.09-.19,0-.11.21-2.59,1.22-3.41.26-.21.55-.3.87-.26h0c.49.06.62.36.65.54.18.96-1.54,2.85-2.44,3.34-.03.02-.06.02-.1.02Zm1.74-3.5c-.17,0-.32.06-.47.18-.64.52-.92,1.98-1.02,2.7.89-.67,1.99-2.1,1.88-2.67,0-.05-.03-.17-.3-.21h0s-.06,0-.09,0Z" fill="#407bff"/><polygon points="183.59 408.18 191.48 408.18 191.56 389.9 183.67 389.9 183.59 408.18" fill="#ffc3bd"/><polygon points="128.59 401.42 136.19 402.81 141.64 384.82 134.04 383.43 128.59 401.42" fill="#ffc3bd"/><path d="m137.64,400.79l-8.63-2.04c-.31-.07-.63.08-.76.37l-2.87,6.53c-.3.68.13,1.49.85,1.64,3.02.66,4.52.83,8.32,1.73,2.33.55,7.1,1.93,10.32,2.7,3.15.75,4.28-2.36,3.01-2.96-5.66-2.71-7.54-5.03-9.1-7.2-.28-.39-.69-.66-1.15-.77Z" style="fill: rgb(100, 139, 226);"/><path d="m191.39,407.26h-8.62c-.32,0-.59.22-.65.54l-1.29,7.02c-.13.73.45,1.42,1.19,1.4,3.11-.05,7.59-.24,11.5-.24,4.57,0,6.2.25,11.56.25,3.24,0,4.01-3.28,2.65-3.57-6.23-1.35-8.95-1.5-14.41-4.79-.59-.36-1.24-.61-1.93-.61Z" style="fill: rgb(100, 139, 226);"/><path d="m149.66,139.86c-7.7,7.35-9.99,23.84-9.99,23.84l13.91,6.82s4.23-8.51,6.88-17.75c2.77-9.68-5.23-18.22-10.8-12.9Z" style="fill: rgb(212, 212, 216);"/><path d="m156.58,150.75l-7.08,17.73,4.09,2.03s2.28-4.61,4.56-10.72l-1.57-9.04Z" opacity=".2"/><path d="m198.37,174.03c-.06,8.81-.59,19.77-1.9,33.37h-42.22c-.52-6.2,2.07-35.43-4.21-64.7-.47-2.18.99-4.31,3.19-4.65,2.69-.42,6.37-.9,9.97-1.07,5.38-.26,13.19-.43,17.94,0,6.28.57,12.23,2.19,12.23,2.19,0,0,3.61,3.91,4.71,22.25.21,3.62.33,7.79.3,12.6Z" style="fill: rgb(212, 212, 216);"/><path d="m158.28,136.8l-1.85.22c-.31.04-.53.32-.48.63.57,3.76,5.37,26.21,40.96,58.97.34.31.9.1.93-.36l.14-2.07c.01-.17-.06-.33-.18-.44-35.85-32.78-38.7-52.82-38.91-56.42-.02-.32-.3-.55-.61-.52Z" fill="#407bff"/><path d="m181.13,179.74l16.21,15.58-1.87,1.18c-2.49,1.56-5.63,1.63-8.18.18l-4.28-2.43c-3.34-1.9-4.86-5.91-3.6-9.54l1.72-4.97Z" fill="#407bff"/><path d="m186.49,193.71c.14.31.79.26,1.46-.12.67-.38,1.1-.94.96-1.26s-.79-.26-1.46.12c-.67.38-1.1.94-.96,1.26Z" fill="#263238"/><path d="m198.37,174.03c-2.55-4.66-7.19-14.02-6.54-19.35l6.23,6.75c.21,3.62.33,7.79.3,12.6Z" opacity=".2"/><path d="m185.08,146.32c-.67,7.49,16.39,25.61,16.39,25.61l13.67-11.13s-5.62-9.74-12.77-16.66c-7.99-7.73-16.53-6.25-17.28,2.18Z" style="fill: rgb(212, 212, 216);"/><g opacity=".2"><polygon points="191.56 389.9 191.52 400.06 183.62 400.06 183.66 389.9 191.56 389.9"/><polygon points="134.04 383.43 141.64 384.83 138.83 394.1 131.23 392.7 134.04 383.43"/></g><path d="m166.6,107.89c-1.16,7.77-2.22,12.25.77,17.14,4.51,7.36,14.61,6.22,18.03-.96,3.09-6.47,4.46-18.09-2.32-23.01-6.67-4.85-15.33-.94-16.49,6.83Z" fill="#ffc3bd"/><path d="m180.61,115.08c-.06,2.21-5.73,9.43-10.57,10.33-5.23.97-6.57-.51-7.4-7.64-.95-8.2-3.7-8.2-4.89-13.43-1.5-6.59,4.95-12.59,12.59-8.95,6.62,3.15,12.74-3.05,17.3-4.89,4.56-1.85,5.26,3.43,2.22,6.98-3.01,3.51,1.77,1.37,3.16,2.87,2.51,2.69-1.6,8.71-11.83,11.1,1.76,1.89-.59,3.64-.59,3.64Z" fill="#263238"/><path d="m178.21,112.69c0,2.07.81,4.1,1.87,5.48,1.58,2.07,3.43,1.06,3.88-1.23.4-2.06.06-5.62-1.96-6.88-1.99-1.24-3.78.26-3.79,2.63Z" fill="#ffc3bd"/><g><path d="m181.48,207.4s-6.63,60.32-10.67,82.92c-4.43,24.75-27.37,102.42-27.37,102.42l-14.14-3.01s15.79-72.67,17.92-97.17c2.31-26.59,7.02-85.16,7.02-85.16h27.24Z" fill="#407bff"/><path d="m181.48,207.4s-6.63,60.32-10.67,82.92c-4.43,24.75-27.37,102.42-27.37,102.42l-14.14-3.01s15.79-72.67,17.92-97.17c2.31-26.59,7.02-85.16,7.02-85.16h27.24Z" fill="#fff" opacity=".15"/></g><path d="m146.61,387.98c.06.01-2.41,5.16-2.41,5.16l-15.91-3.39,1.14-4.82,17.18,3.05Z" style="fill: rgb(212, 212, 216);"/><path d="m176.65,228.9c-10.28,2.03-7.69,40.66-5.68,60.52,2.44-14.04,5.77-41.06,8.02-60.24-.7-.34-1.48-.45-2.34-.28Z" opacity=".2"/><g><path d="m196.46,207.4s3.37,59.01,3.44,83.08c.07,25.04-5.51,107.01-5.51,107.01h-13.37s-3.6-80.51-5.14-105.1c-1.68-26.81-7.17-85-7.17-85h27.75Z" fill="#407bff"/><path d="m196.46,207.4s3.37,59.01,3.44,83.08c.07,25.04-5.51,107.01-5.51,107.01h-13.37s-3.6-80.51-5.14-105.1c-1.68-26.81-7.17-85-7.17-85h27.75Z" fill="#fff" opacity=".15"/></g><path d="m196.76,392.18c.06,0-.54,5.55-.54,5.55h-16.27l-.63-4.95,17.44-.6Z" style="fill: rgb(212, 212, 216);"/></g></g><g><path d="m274.85,117.28l.81-5.88h.97l-.81,5.88h-.97Zm.26,0l.12-.84h3.37l-.12.84h-3.37Z" style="fill: rgb(255, 255, 255);"/><path d="m281.26,117.39c-.37,0-.69-.06-.96-.16-.27-.11-.49-.27-.66-.47-.17-.2-.28-.45-.34-.74-.06-.29-.07-.61-.02-.98.05-.36.15-.7.29-1,.14-.31.32-.57.54-.8.22-.23.47-.4.77-.53.29-.12.62-.19.97-.19.33,0,.61.05.86.16.24.11.44.27.59.49.15.22.24.49.29.81.04.32.02.7-.06,1.14l-3.63.03.08-.61,3.06-.03-.39.37c.09-.36.1-.65.03-.88-.06-.23-.18-.4-.34-.52-.16-.11-.36-.17-.59-.17-.26,0-.5.07-.71.2-.21.13-.39.33-.53.58-.14.26-.24.56-.29.92-.07.54-.01.94.19,1.21.2.27.52.41.96.41.18,0,.34-.02.48-.07.14-.04.25-.1.35-.18.1-.07.18-.16.26-.27.07-.1.13-.21.18-.33l.82.2c-.08.22-.19.41-.33.58s-.29.32-.47.44c-.18.12-.39.22-.62.28-.23.07-.49.1-.78.1Z" style="fill: rgb(255, 255, 255);"/><path d="m285.39,117.39c-.26,0-.48-.05-.67-.15-.19-.1-.33-.25-.42-.44-.09-.2-.11-.44-.07-.73.03-.23.1-.43.21-.6.11-.17.26-.31.45-.43.19-.12.43-.21.71-.29.28-.07.62-.14,1-.19.21-.03.39-.06.52-.09s.24-.08.31-.14c.07-.07.12-.16.13-.29.03-.2-.02-.38-.14-.52-.12-.15-.33-.22-.64-.22-.17,0-.35.03-.52.09-.18.06-.34.16-.48.29-.14.13-.25.31-.32.54l-.83-.28c.08-.23.2-.43.34-.6.14-.18.31-.32.51-.45.19-.12.41-.21.66-.28.24-.06.5-.09.78-.09.41,0,.74.07.99.21s.42.35.52.63c.09.28.11.64.05,1.08l-.13.94c-.03.2-.05.4-.07.62-.02.22-.04.43-.05.65-.02.22-.02.42-.03.62h-.88c0-.18.02-.36.03-.55.01-.19.02-.38.04-.58h-.13c-.11.23-.26.43-.44.62-.18.19-.39.34-.62.45-.24.11-.51.17-.8.17Zm.44-.75c.12,0,.25-.02.39-.06.13-.04.27-.11.41-.19.14-.09.27-.2.4-.33s.25-.3.36-.49l.11-.84.23.04c-.11.09-.25.16-.41.21-.16.05-.33.08-.51.11-.18.03-.36.06-.54.09-.18.03-.35.08-.5.13-.15.06-.28.14-.38.24-.1.1-.16.24-.19.42-.03.22.01.39.14.5.12.12.29.17.5.17Z" style="fill: rgb(255, 255, 255);"/><path d="m289.39,117.28l.33-2.42.31-2.22h.84l-.27,1.6h.15c.1-.36.23-.67.38-.93.15-.26.33-.45.54-.58.21-.13.47-.2.76-.2.06,0,.12,0,.19,0,.07,0,.15.02.23.05l-.18,1.02c-.08-.04-.17-.06-.27-.08-.09-.02-.18-.02-.25-.02-.24,0-.45.07-.63.2-.18.13-.35.32-.49.55-.14.23-.26.51-.37.82l-.3,2.19h-.97Z" style="fill: rgb(255, 255, 255);"/><path d="m293.06,117.28l.39-2.85.25-1.78h.84l-.25,1.44h.15c.13-.36.28-.65.46-.88.17-.23.37-.4.61-.51.23-.11.49-.17.79-.17.52,0,.88.18,1.1.55.22.37.28.93.17,1.68l-.35,2.51h-.98l.33-2.42c.07-.52.05-.9-.08-1.14-.12-.24-.34-.36-.65-.36-.27,0-.51.09-.72.25-.21.17-.38.39-.52.66-.14.27-.24.57-.29.89l-.29,2.1h-.96Z" style="fill: rgb(255, 255, 255);"/><path d="m298.54,117.28l.81-5.88h.97l-.81,5.88h-.97Zm.87-2.58l.11-.82h3.75l-.11.82h-3.75Zm3.01,2.58l.81-5.88h.97l-.81,5.88h-.97Z" style="fill: rgb(255, 255, 255);"/><path d="m306.28,117.39c-.52,0-.89-.18-1.11-.54-.22-.36-.28-.9-.18-1.63l.36-2.58h.97l-.34,2.48c-.07.49-.04.85.07,1.09.12.24.33.36.66.36.18,0,.34-.04.49-.13.15-.09.29-.21.41-.37.13-.16.24-.35.33-.57.09-.22.17-.46.23-.72l.29-2.13h.96l-.37,2.71-.27,1.93h-.82l.25-1.47h-.15c-.13.37-.28.67-.45.9-.17.23-.37.41-.59.52-.22.11-.47.16-.74.16Z" style="fill: rgb(255, 255, 255);"/><path d="m312.64,117.39c-.3,0-.54-.06-.74-.18-.19-.12-.34-.28-.44-.49-.1-.21-.17-.45-.19-.73h-.15l-.15,1.28h-.84l.31-2.28.55-4h.97l-.2,1.47c-.02.15-.05.31-.09.48-.04.17-.09.34-.14.52-.05.17-.1.35-.16.52h.17c.11-.27.24-.51.4-.73.16-.22.35-.39.58-.52.23-.13.49-.2.8-.2.39,0,.7.1.96.31.25.21.43.49.53.86.1.37.12.79.05,1.28-.07.48-.2.89-.39,1.26-.2.36-.45.65-.75.85s-.66.31-1.07.31Zm-.16-.82c.24,0,.45-.07.64-.2.19-.13.35-.32.47-.56.12-.24.21-.52.25-.84.04-.31.04-.59-.02-.84-.06-.24-.16-.43-.31-.57-.15-.14-.35-.21-.59-.21-.17,0-.33.03-.48.1-.15.07-.28.16-.4.27-.12.11-.22.24-.31.37-.09.14-.16.28-.21.42-.06.14-.09.27-.11.39l-.02.12c-.02.16-.02.33.01.51.03.18.09.35.18.5.09.15.21.28.35.37.15.09.33.14.53.14Z" style="fill: rgb(255, 255, 255);"/></g></g></svg>