<?xml version="1.0" encoding="UTF-8"?>
<svg xmlns="http://www.w3.org/2000/svg" id="Layer_1" data-name="Layer 1" viewBox="0 0 24 24">
  <path d="M21.619,10.11c-.835-.064-1.549,.551-1.614,1.376-.414,5.208-3.106,7.848-8.005,7.848s-7.591-2.64-8.005-7.848c-.065-.826-.778-1.441-1.614-1.376-.826,.065-1.442,.788-1.376,1.614,.76,9.577,7.942,10.61,10.995,10.61s10.235-1.034,10.995-10.61c.066-.826-.551-1.548-1.376-1.614Z"/>
  <path d="M9.311,10.554c.542,0,.982,.448,.982,1s-.44,1-.982,1h-3.493c.674,3.386,2.683,4.985,6.181,4.985s5.508-1.599,6.181-4.985h-3.492c-.542,0-.982-.448-.982-1s.44-1,.982-1h3.727c.015-.307,.023-.624,.023-.952s-.008-.645-.023-.951h-3.727c-.542,0-.982-.448-.982-1s.44-1,.982-1h3.493c-.674-3.386-2.683-4.985-6.181-4.985s-5.508,1.599-6.181,4.985h3.492c.542,0,.982,.448,.982,1s-.44,1-.982,1h-3.727c-.015,.307-.023,.624-.023,.952s.008,.645,.023,.951h3.727Z"/>
</svg>
