<svg id="Layer_1" viewBox="0 0 24 24" xmlns="http://www.w3.org/2000/svg" data-name="Layer 1"><path d="m13.27 7.48c-.813.813-1.27 1.915-1.27 3.065v.955c0 .276.224.5.5.5h.955c1.149 0 2.252-.457 3.064-1.269l6.715-6.715c.85-.85 1.013-2.236.252-3.167-.875-1.07-2.456-1.129-3.409-.176zm4.664 4.664c-1.195 1.196-2.786 1.855-4.479 1.855h-1.455c-1.104 0-2-.896-2-2v-1.455c0-1.692.659-3.282 1.855-4.479l5.468-5.466c-.697-.37-1.48-.599-2.323-.599h-10c-2.757 0-5 2.243-5 5v14c0 2.757 2.243 5 5 5h10c2.757 0 5-2.243 5-5v-8.921l-2.066 2.066zm-9.767 4.522-1.687 1.687c-.431.431-.995.648-1.561.648-.533 0-1.066-.193-1.491-.582l-.669-.579c-.417-.362-.462-.993-.101-1.411.363-.417.994-.462 1.411-.101l.689.598c.103.093.228.092.307.013l1.687-1.687c.391-.391 1.023-.391 1.414 0s.391 1.023 0 1.414zm0-5-1.687 1.687c-.431.431-.995.648-1.561.648-.533 0-1.066-.193-1.491-.582l-.669-.579c-.417-.362-.462-.994-.101-1.411.363-.419.994-.461 1.411-.101l.689.598c.103.093.228.092.307.013l1.687-1.687c.391-.391 1.023-.391 1.414 0s.391 1.023 0 1.414zm0-4.96-1.687 1.687c-.431.431-.995.648-1.561.648-.533 0-1.066-.193-1.491-.582l-.669-.579c-.417-.362-.462-.994-.101-1.411.363-.418.994-.461 1.411-.101l.689.598c.103.094.228.092.307.013l1.687-1.687c.391-.391 1.023-.391 1.414 0s.391 1.023 0 1.414zm7.833 11.293h-4c-.553 0-1-.447-1-1s.447-1 1-1h4c.553 0 1 .447 1 1s-.447 1-1 1z"/></svg>